<svg aria-hidden="true" style="width:0;height:0;position:absolute;overflow:hidden" xmlns="http://www.w3.org/2000/svg"><defs><symbol id="icon-github" viewBox="0 0 33 32"><path d="M16.285 0C7.28 0 0 7.333 0 16.406c0 7.252 4.664 13.391 11.135 15.563.809.163 1.105-.353 1.105-.787 0-.38-.027-1.684-.027-3.042-4.53.978-5.473-1.956-5.473-1.956-.728-1.901-1.807-2.39-1.807-2.39-1.483-1.005.108-1.005.108-1.005 1.645.109 2.508 1.684 2.508 1.684 1.456 2.499 3.801 1.793 4.745 1.358.135-1.059.566-1.793 1.025-2.2-3.613-.38-7.414-1.793-7.414-8.094 0-1.793.647-3.259 1.671-4.4-.162-.407-.728-2.092.162-4.346 0 0 1.375-.435 4.475 1.684a15.282 15.282 0 0 1 4.07-.543h.001c1.375 0 2.777.19 4.071.543 3.101-2.119 4.476-1.684 4.476-1.684.89 2.254.323 3.939.162 4.346 1.052 1.141 1.672 2.607 1.672 4.4 0 6.302-3.801 7.687-7.441 8.094.593.516 1.105 1.494 1.105 3.042 0 2.2-.027 3.966-.027 4.509 0 .435.297.951 1.105.788 6.471-2.173 11.135-8.312 11.135-15.564C32.569 7.334 25.262 0 16.284 0z"/></symbol></defs></svg>